REM DIRINDEX 1\2\4\18,1\2\4\19,1\2\5\20,1\2\5\21,1\2\6\22,1\2\6\23,1\2\7\24,1\2\8\25,1\2\9\26,1\2\10\27,1\2\10\28,1\3\11\29,1\3\11\30,1\3\11\31,1\3\11\32,1\3\12\33,1\3\12\34,1\3\12\35,1\3\12\36,1\3\13\37,1\3\13\38,1\3\13\39,1\3\13\40,1\3\14\41,1\3\14\42,1\3\15\43,1\3\15\44,1\3\16\45,1\3\16\46,1\3\17\47,1\3\17\48,1\3\17\49,1\3\17\50
REM DIRNAME cjc135,folder01,folder02,folder03,folder04,folder05,folder06,folder07,folder08,folder09,folder10,folder11,folder12,folder13,folder14,folder15,folder16,folder17,folder18,folder19,folder20,folder21,folder22,folder23,folder24,folder25,folder26,folder27,folder28,folder29,folder30,folder31,folder32,folder33,folder34,folder35,folder36,folder37,folder38,folder39,folder40,folder41,folder42,folder43,folder44,folder45,folder46,folder47,folder48,folder49
TITLE ""
FILE "14.mp3" MP3
  TRACK 01 AUDIO
    TITLE "0:"
    INDEX 01 00:00:00
  TRACK 02 AUDIO
    TITLE "46:cjc135_6648"
    INDEX 01 00:00:15
  TRACK 03 AUDIO
    TITLE "0:"
    INDEX 01 00:01:44
  TRACK 04 AUDIO
    TITLE "45:cjc135_6649"
    INDEX 01 00:01:68
  TRACK 05 AUDIO
    TITLE "0:"
    INDEX 01 00:03:55
  TRACK 06 AUDIO
    TITLE "46:cjc135_6650"
    INDEX 01 00:04:44
  TRACK 07 AUDIO
    TITLE "0:"
    INDEX 01 00:05:52
  TRACK 08 AUDIO
    TITLE "45:cjc135_6651"
    INDEX 01 00:06:02
  TRACK 09 AUDIO
    TITLE "0:"
    INDEX 01 00:07:52
  TRACK 10 AUDIO
    TITLE "46:cjc135_6652"
    INDEX 01 00:08:42
  TRACK 11 AUDIO
    TITLE "0:"
    INDEX 01 00:10:04
  TRACK 12 AUDIO
    TITLE "45:cjc135_6653"
    INDEX 01 00:10:29
  TRACK 13 AUDIO
    TITLE "0:"
    INDEX 01 00:12:05
  TRACK 14 AUDIO
    TITLE "46:cjc135_6654"
    INDEX 01 00:12:71
  TRACK 15 AUDIO
    TITLE "0:"
    INDEX 01 00:14:07
  TRACK 16 AUDIO
    TITLE "45:cjc135_6655"
    INDEX 01 00:14:35
  TRACK 17 AUDIO
    TITLE "0:"
    INDEX 01 00:16:42
  TRACK 18 AUDIO
    TITLE "46:cjc135_6656"
    INDEX 01 00:17:35
  TRACK 19 AUDIO
    TITLE "0:"
    INDEX 01 00:18:46
  TRACK 20 AUDIO
    TITLE "45:cjc135_6657"
    INDEX 01 00:18:74
  TRACK 21 AUDIO
    TITLE "0:"
    INDEX 01 00:20:53
  TRACK 22 AUDIO
    TITLE "46:cjc135_6658"
    INDEX 01 00:21:43
  TRACK 23 AUDIO
    TITLE "0:"
    INDEX 01 00:22:52
  TRACK 24 AUDIO
    TITLE "45:cjc135_6659"
    INDEX 01 00:23:04
  TRACK 25 AUDIO
    TITLE "0:"
    INDEX 01 00:25:07
  TRACK 26 AUDIO
    TITLE "46:cjc135_6660"
    INDEX 01 00:25:74
  TRACK 27 AUDIO
    TITLE "0:"
    INDEX 01 00:27:08
  TRACK 28 AUDIO
    TITLE "45:cjc135_6661"
    INDEX 01 00:27:32
  TRACK 29 AUDIO
    TITLE "0:"
    INDEX 01 00:28:74
  TRACK 30 AUDIO
    TITLE "46:cjc135_6662"
    INDEX 01 00:29:60
  TRACK 31 AUDIO
    TITLE "0:"
    INDEX 01 00:31:04
  TRACK 32 AUDIO
    TITLE "45:cjc135_6663"
    INDEX 01 00:31:29
  TRACK 33 AUDIO
    TITLE "0:"
    INDEX 01 00:33:01
  TRACK 34 AUDIO
    TITLE "46:cjc135_6664"
    INDEX 01 00:33:66
  TRACK 35 AUDIO
    TITLE "0:"
    INDEX 01 00:34:73
  TRACK 36 AUDIO
    TITLE "45:cjc135_6665"
    INDEX 01 00:35:27
  TRACK 37 AUDIO
    TITLE "0:"
    INDEX 01 00:37:10
  TRACK 38 AUDIO
    TITLE "46:cjc135_6666"
    INDEX 01 00:37:73
  TRACK 39 AUDIO
    TITLE "0:"
    INDEX 01 00:39:05
  TRACK 40 AUDIO
    TITLE "45:cjc135_6667"
    INDEX 01 00:39:27
  TRACK 41 AUDIO
    TITLE "0:"
    INDEX 01 00:41:10
  TRACK 42 AUDIO
    TITLE "46:cjc135_6668"
    INDEX 01 00:42:00
  TRACK 43 AUDIO
    TITLE "0:"
    INDEX 01 00:43:19
  TRACK 44 AUDIO
    TITLE "45:cjc135_6669"
    INDEX 01 00:43:44
  TRACK 45 AUDIO
    TITLE "0:"
    INDEX 01 00:45:14
  TRACK 46 AUDIO
    TITLE "46:cjc135_6670"
    INDEX 01 00:46:02
  TRACK 47 AUDIO
    TITLE "0:"
    INDEX 01 00:47:13
  TRACK 48 AUDIO
    TITLE "45:cjc135_6671"
    INDEX 01 00:47:44
  TRACK 49 AUDIO
    TITLE "0:"
    INDEX 01 00:49:14
  TRACK 50 AUDIO
    TITLE "46:cjc135_6672"
    INDEX 01 00:49:74
  TRACK 51 AUDIO
    TITLE "0:"
    INDEX 01 00:51:22
  TRACK 52 AUDIO
    TITLE "45:cjc135_6673"
    INDEX 01 00:51:48
  TRACK 53 AUDIO
    TITLE "0:"
    INDEX 01 00:53:51
  TRACK 54 AUDIO
    TITLE "46:cjc135_6674"
    INDEX 01 00:54:42
  TRACK 55 AUDIO
    TITLE "0:"
    INDEX 01 00:55:67
  TRACK 56 AUDIO
    TITLE "45:cjc135_6675"
    INDEX 01 00:56:18
  TRACK 57 AUDIO
    TITLE "0:"
    INDEX 01 00:58:01
  TRACK 58 AUDIO
    TITLE "46:cjc135_6676"
    INDEX 01 00:58:67
  TRACK 59 AUDIO
    TITLE "0:"
    INDEX 01 01:00:06
  TRACK 60 AUDIO
    TITLE "45:cjc135_6677"
    INDEX 01 01:00:33
  TRACK 61 AUDIO
    TITLE "0:"
    INDEX 01 01:02:44
  TRACK 62 AUDIO
    TITLE "46:cjc135_6678"
    INDEX 01 01:03:29
  TRACK 63 AUDIO
    TITLE "0:"
    INDEX 01 01:04:70
  TRACK 64 AUDIO
    TITLE "45:cjc135_6679"
    INDEX 01 01:05:21
  TRACK 65 AUDIO
    TITLE "0:"
    INDEX 01 01:06:14
  TRACK 66 AUDIO
    TITLE "46:cjc135_6680"
    INDEX 01 01:07:04
  TRACK 67 AUDIO
    TITLE "0:"
    INDEX 01 01:08:35
  TRACK 68 AUDIO
    TITLE "45:cjc135_6681"
    INDEX 01 01:08:60
  TRACK 69 AUDIO
    TITLE "0:"
    INDEX 01 01:09:73
  TRACK 70 AUDIO
    TITLE "46:cjc135_6682"
    INDEX 01 01:10:59
  TRACK 71 AUDIO
    TITLE "0:"
    INDEX 01 01:11:62
  TRACK 72 AUDIO
    TITLE "45:cjc135_6683"
    INDEX 01 01:12:13
  TRACK 73 AUDIO
    TITLE "0:"
    INDEX 01 01:13:28
  TRACK 74 AUDIO
    TITLE "46:cjc135_6684"
    INDEX 01 01:14:17
  TRACK 75 AUDIO
    TITLE "0:"
    INDEX 01 01:15:52
  TRACK 76 AUDIO
    TITLE "45:cjc135_6685"
    INDEX 01 01:16:03
  TRACK 77 AUDIO
    TITLE "0:"
    INDEX 01 01:17:02
  TRACK 78 AUDIO
    TITLE "46:cjc135_6686"
    INDEX 01 01:17:65
  TRACK 79 AUDIO
    TITLE "0:"
    INDEX 01 01:19:01
  TRACK 80 AUDIO
    TITLE "45:cjc135_6687"
    INDEX 01 01:19:27
  TRACK 81 AUDIO
    TITLE "0:"
    INDEX 01 01:20:49
  TRACK 82 AUDIO
    TITLE "46:cjc135_6688"
    INDEX 01 01:21:39
  TRACK 83 AUDIO
    TITLE "0:"
    INDEX 01 01:22:70
  TRACK 84 AUDIO
    TITLE "45:cjc135_6689"
    INDEX 01 01:23:20
  TRACK 85 AUDIO
    TITLE "0:"
    INDEX 01 01:24:61
  TRACK 86 AUDIO
    TITLE "46:cjc135_6690"
    INDEX 01 01:25:53
  TRACK 87 AUDIO
    TITLE "0:"
    INDEX 01 01:26:44
  TRACK 88 AUDIO
    TITLE "45:cjc135_6691"
    INDEX 01 01:26:70
  TRACK 89 AUDIO
    TITLE "0:"
    INDEX 01 01:27:67
  TRACK 90 AUDIO
    TITLE "46:cjc135_6692"
    INDEX 01 01:28:55
  TRACK 91 AUDIO
    TITLE "0:"
    INDEX 01 01:29:45
  TRACK 92 AUDIO
    TITLE "45:cjc135_6693"
    INDEX 01 01:29:70
  TRACK 93 AUDIO
    TITLE "0:"
    INDEX 01 01:30:73
  TRACK 94 AUDIO
    TITLE "46:cjc135_6694"
    INDEX 01 01:31:65
  TRACK 95 AUDIO
    TITLE "0:"
    INDEX 01 01:32:68
  TRACK 96 AUDIO
    TITLE "45:cjc135_6695"
    INDEX 01 01:33:27
  TRACK 97 AUDIO
    TITLE "0:"
    INDEX 01 01:34:40
  TRACK 98 AUDIO
    TITLE "46:cjc135_6696"
    INDEX 01 01:35:27
  TRACK 99 AUDIO
    TITLE "0:"
    INDEX 01 01:36:29
  TRACK 100 AUDIO
    TITLE "45:cjc135_6697"
    INDEX 01 01:36:54
  TRACK 101 AUDIO
    TITLE "0:"
    INDEX 01 01:37:68
  TRACK 102 AUDIO
    TITLE "46:cjc135_6698"
    INDEX 01 01:38:55
  TRACK 103 AUDIO
    TITLE "0:"
    INDEX 01 01:40:07
  TRACK 104 AUDIO
    TITLE "45:cjc135_6699"
    INDEX 01 01:40:33
  TRACK 105 AUDIO
    TITLE "0:"
    INDEX 01 01:41:59
  TRACK 106 AUDIO
    TITLE "46:cjc135_6700"
    INDEX 01 01:42:47
  TRACK 107 AUDIO
    TITLE "0:"
    INDEX 01 01:43:47
  TRACK 108 AUDIO
    TITLE "45:cjc135_6701"
    INDEX 01 01:43:72
  TRACK 109 AUDIO
    TITLE "0:"
    INDEX 01 01:45:26
  TRACK 110 AUDIO
    TITLE "46:cjc135_6702"
    INDEX 01 01:46:18
  TRACK 111 AUDIO
    TITLE "0:"
    INDEX 01 01:47:19
  TRACK 112 AUDIO
    TITLE "45:cjc135_6703"
    INDEX 01 01:47:42
  TRACK 113 AUDIO
    TITLE "0:"
    INDEX 01 01:48:46
  TRACK 114 AUDIO
    TITLE "46:cjc135_6704"
    INDEX 01 01:49:32
  TRACK 115 AUDIO
    TITLE "0:"
    INDEX 01 01:50:35
  TRACK 116 AUDIO
    TITLE "45:cjc135_6705"
    INDEX 01 01:50:62
  TRACK 117 AUDIO
    TITLE "0:"
    INDEX 01 01:52:02
  TRACK 118 AUDIO
    TITLE "46:cjc135_6706"
    INDEX 01 01:52:65
  TRACK 119 AUDIO
    TITLE "0:"
    INDEX 01 01:54:37
  TRACK 120 AUDIO
    TITLE "45:cjc135_6707"
    INDEX 01 01:54:62
  TRACK 121 AUDIO
    TITLE "0:"
    INDEX 01 01:55:73
  TRACK 122 AUDIO
    TITLE "46:cjc135_6708"
    INDEX 01 01:56:59
  TRACK 123 AUDIO
    TITLE "0:"
    INDEX 01 01:57:62
  TRACK 124 AUDIO
    TITLE "45:cjc135_6709"
    INDEX 01 01:58:13
  TRACK 125 AUDIO
    TITLE "0:"
    INDEX 01 01:59:20
  TRACK 126 AUDIO
    TITLE "46:cjc135_6710"
    INDEX 01 02:00:18
  TRACK 127 AUDIO
    TITLE "0:"
    INDEX 01 02:01:64
  TRACK 128 AUDIO
    TITLE "45:cjc135_6711"
    INDEX 01 02:02:17
  TRACK 129 AUDIO
    TITLE "0:"
    INDEX 01 02:03:55
  TRACK 130 AUDIO
    TITLE "46:cjc135_6712"
    INDEX 01 02:04:43
  TRACK 131 AUDIO
    TITLE "0:"
    INDEX 01 02:06:05
  TRACK 132 AUDIO
    TITLE "45:cjc135_6713"
    INDEX 01 02:06:32
  TRACK 133 AUDIO
    TITLE "0:"
    INDEX 01 02:07:71
  TRACK 134 AUDIO
    TITLE "46:cjc135_6714"
    INDEX 01 02:08:56
  TRACK 135 AUDIO
    TITLE "0:"
    INDEX 01 02:10:28
  TRACK 136 AUDIO
    TITLE "45:cjc135_6715"
    INDEX 01 02:10:51
  TRACK 137 AUDIO
    TITLE "0:"
    INDEX 01 02:11:49
  TRACK 138 AUDIO
    TITLE "46:cjc135_6716"
    INDEX 01 02:12:36
  TRACK 139 AUDIO
    TITLE "0:"
    INDEX 01 02:14:10
  TRACK 140 AUDIO
    TITLE "45:cjc135_6717"
    INDEX 01 02:14:35
  TRACK 141 AUDIO
    TITLE "0:"
    INDEX 01 02:15:31
  TRACK 142 AUDIO
    TITLE "46:cjc135_6718"
    INDEX 01 02:16:19
  TRACK 143 AUDIO
    TITLE "0:"
    INDEX 01 02:17:47
  TRACK 144 AUDIO
    TITLE "45:cjc135_6719"
    INDEX 01 02:18:00
  TRACK 145 AUDIO
    TITLE "0:"
    INDEX 01 02:19:64
  TRACK 146 AUDIO
    TITLE "46:cjc135_6720"
    INDEX 01 02:20:50
  TRACK 147 AUDIO
    TITLE "0:"
    INDEX 01 02:21:73
  TRACK 148 AUDIO
    TITLE "45:cjc135_6721"
    INDEX 01 02:22:25
  TRACK 149 AUDIO
    TITLE "0:"
    INDEX 01 02:23:40
  TRACK 150 AUDIO
    TITLE "46:cjc135_6722"
    INDEX 01 02:24:30
  TRACK 151 AUDIO
    TITLE "0:"
    INDEX 01 02:26:07
  TRACK 152 AUDIO
    TITLE "45:cjc135_6723"
    INDEX 01 02:26:33
  TRACK 153 AUDIO
    TITLE "0:"
    INDEX 01 02:27:40
  TRACK 154 AUDIO
    TITLE "46:cjc135_6724"
    INDEX 01 02:28:28
  TRACK 155 AUDIO
    TITLE "0:"
    INDEX 01 02:29:70
  TRACK 156 AUDIO
    TITLE "45:cjc135_6725"
    INDEX 01 02:30:19
  TRACK 157 AUDIO
    TITLE "0:"
    INDEX 01 02:31:61
  TRACK 158 AUDIO
    TITLE "46:cjc135_6726"
    INDEX 01 02:32:51
  TRACK 159 AUDIO
    TITLE "0:"
    INDEX 01 02:34:17
  TRACK 160 AUDIO
    TITLE "45:cjc135_6727"
    INDEX 01 02:34:44
  TRACK 161 AUDIO
    TITLE "0:"
    INDEX 01 02:35:67
  TRACK 162 AUDIO
    TITLE "46:cjc135_6728"
    INDEX 01 02:36:55
  TRACK 163 AUDIO
    TITLE "0:"
    INDEX 01 02:38:26
  TRACK 164 AUDIO
    TITLE "45:cjc135_6729"
    INDEX 01 02:38:52
  TRACK 165 AUDIO
    TITLE "0:"
    INDEX 01 02:39:71
  TRACK 166 AUDIO
    TITLE "46:cjc135_6730"
    INDEX 01 02:40:60
  TRACK 167 AUDIO
    TITLE "0:"
    INDEX 01 02:41:71
  TRACK 168 AUDIO
    TITLE "45:cjc135_6731"
    INDEX 01 02:42:22
  TRACK 169 AUDIO
    TITLE "0:"
    INDEX 01 02:43:49
  TRACK 170 AUDIO
    TITLE "46:cjc135_6732"
    INDEX 01 02:44:35
  TRACK 171 AUDIO
    TITLE "0:"
    INDEX 01 02:45:46
  TRACK 172 AUDIO
    TITLE "45:cjc135_6733"
    INDEX 01 02:45:71
  TRACK 173 AUDIO
    TITLE "0:"
    INDEX 01 02:47:02
  TRACK 174 AUDIO
    TITLE "46:cjc135_6734"
    INDEX 01 02:47:66
  TRACK 175 AUDIO
    TITLE "0:"
    INDEX 01 02:49:28
  TRACK 176 AUDIO
    TITLE "45:cjc135_6735"
    INDEX 01 02:49:53
  TRACK 177 AUDIO
    TITLE "0:"
    INDEX 01 02:51:05
  TRACK 178 AUDIO
    TITLE "46:cjc135_6736"
    INDEX 01 02:51:68
  TRACK 179 AUDIO
    TITLE "0:"
    INDEX 01 02:53:10
  TRACK 180 AUDIO
    TITLE "45:cjc135_6737"
    INDEX 01 02:53:35
  TRACK 181 AUDIO
    TITLE "0:"
    INDEX 01 02:55:64
  TRACK 182 AUDIO
    TITLE "46:cjc135_6738"
    INDEX 01 02:56:51
  TRACK 183 AUDIO
    TITLE "0:"
    INDEX 01 02:57:55
  TRACK 184 AUDIO
    TITLE "45:cjc135_6739"
    INDEX 01 02:58:07
  TRACK 185 AUDIO
    TITLE "0:"
    INDEX 01 02:59:22
  TRACK 186 AUDIO
    TITLE "46:cjc135_6740"
    INDEX 01 03:00:10
  TRACK 187 AUDIO
    TITLE "0:"
    INDEX 01 03:01:57
  TRACK 188 AUDIO
    TITLE "45:cjc135_6741"
    INDEX 01 03:02:07
  TRACK 189 AUDIO
    TITLE "0:"
    INDEX 01 03:03:28
  TRACK 190 AUDIO
    TITLE "46:cjc135_6742"
    INDEX 01 03:04:14
  TRACK 191 AUDIO
    TITLE "0:"
    INDEX 01 03:05:64
  TRACK 192 AUDIO
    TITLE "45:cjc135_6743"
    INDEX 01 03:06:17
  TRACK 193 AUDIO
    TITLE "0:"
    INDEX 01 03:07:67
  TRACK 194 AUDIO
    TITLE "46:cjc135_6744"
    INDEX 01 03:08:57
  TRACK 195 AUDIO
    TITLE "0:"
    INDEX 01 03:10:10
  TRACK 196 AUDIO
    TITLE "45:cjc135_6745"
    INDEX 01 03:10:40
  TRACK 197 AUDIO
    TITLE "0:"
    INDEX 01 03:11:59
  TRACK 198 AUDIO
    TITLE "46:cjc135_6746"
    INDEX 01 03:12:45
  TRACK 199 AUDIO
    TITLE "0:"
    INDEX 01 03:14:02
  TRACK 200 AUDIO
    TITLE "45:cjc135_6747"
    INDEX 01 03:14:28
  TRACK 201 AUDIO
    TITLE "0:"
    INDEX 01 03:15:43
  TRACK 202 AUDIO
    TITLE "46:cjc135_6748"
    INDEX 01 03:16:35
  TRACK 203 AUDIO
    TITLE "0:"
    INDEX 01 03:17:50
  TRACK 204 AUDIO
    TITLE "45:cjc135_6749"
    INDEX 01 03:18:00
  TRACK 205 AUDIO
    TITLE "0:"
    INDEX 01 03:19:05
  TRACK 206 AUDIO
    TITLE "46:cjc135_6750"
    INDEX 01 03:19:66
  TRACK 207 AUDIO
    TITLE "0:"
    INDEX 01 03:21:08
  TRACK 208 AUDIO
    TITLE "45:cjc135_6751"
    INDEX 01 03:21:34
  TRACK 209 AUDIO
    TITLE "0:"
    INDEX 01 03:22:70
  TRACK 210 AUDIO
    TITLE "46:cjc135_6752"
    INDEX 01 03:23:58
  TRACK 211 AUDIO
    TITLE "0:"
    INDEX 01 03:25:10
  TRACK 212 AUDIO
    TITLE "45:cjc135_6753"
    INDEX 01 03:25:37
  TRACK 213 AUDIO
    TITLE "0:"
    INDEX 01 03:26:41
  TRACK 214 AUDIO
    TITLE "46:cjc135_6754"
    INDEX 01 03:27:27
  TRACK 215 AUDIO
    TITLE "0:"
    INDEX 01 03:28:55
  TRACK 216 AUDIO
    TITLE "45:cjc135_6755"
    INDEX 01 03:29:04
  TRACK 217 AUDIO
    TITLE "0:"
    INDEX 01 03:30:23
  TRACK 218 AUDIO
    TITLE "46:cjc135_6756"
    INDEX 01 03:31:11
  TRACK 219 AUDIO
    TITLE "0:"
    INDEX 01 03:32:28
  TRACK 220 AUDIO
    TITLE "45:cjc135_6757"
    INDEX 01 03:32:49
  TRACK 221 AUDIO
    TITLE "0:"
    INDEX 01 03:33:57
  TRACK 222 AUDIO
    TITLE "46:cjc135_6758"
    INDEX 01 03:34:42
  TRACK 223 AUDIO
    TITLE "0:"
    INDEX 01 03:35:34
  TRACK 224 AUDIO
    TITLE "45:cjc135_6759"
    INDEX 01 03:35:59
  TRACK 225 AUDIO
    TITLE "0:"
    INDEX 01 03:36:74
  TRACK 226 AUDIO
    TITLE "46:cjc135_6760"
    INDEX 01 03:37:64
  TRACK 227 AUDIO
    TITLE "0:"
    INDEX 01 03:39:55
  TRACK 228 AUDIO
    TITLE "45:cjc135_6761"
    INDEX 01 03:40:08
  TRACK 229 AUDIO
    TITLE "0:"
    INDEX 01 03:41:40
  TRACK 230 AUDIO
    TITLE "46:cjc135_6762"
    INDEX 01 03:42:26
  TRACK 231 AUDIO
    TITLE "0:"
    INDEX 01 03:43:67
  TRACK 232 AUDIO
    TITLE "45:cjc135_6763"
    INDEX 01 03:44:21
  TRACK 233 AUDIO
    TITLE "0:"
    INDEX 01 03:45:52
  TRACK 234 AUDIO
    TITLE "46:cjc135_6764"
    INDEX 01 03:46:38
  TRACK 235 AUDIO
    TITLE "0:"
    INDEX 01 03:48:05
  TRACK 236 AUDIO
    TITLE "45:cjc135_6765"
    INDEX 01 03:48:29
  TRACK 237 AUDIO
    TITLE "0:"
    INDEX 01 03:49:52
  TRACK 238 AUDIO
    TITLE "46:cjc135_6766"
    INDEX 01 03:50:39
  TRACK 239 AUDIO
    TITLE "0:"
    INDEX 01 03:51:64
  TRACK 240 AUDIO
    TITLE "45:cjc135_6767"
    INDEX 01 03:52:15
  TRACK 241 AUDIO
    TITLE "0:"
    INDEX 01 03:53:49
  TRACK 242 AUDIO
    TITLE "46:cjc135_6768"
    INDEX 01 03:54:39
  TRACK 243 AUDIO
    TITLE "0:"
    INDEX 01 03:56:14
  TRACK 244 AUDIO
    TITLE "45:cjc135_6769"
    INDEX 01 03:56:40
  TRACK 245 AUDIO
    TITLE "0:"
    INDEX 01 03:57:61
  TRACK 246 AUDIO
    TITLE "46:cjc135_6770"
    INDEX 01 03:58:51
  TRACK 247 AUDIO
    TITLE "0:"
    INDEX 01 04:01:04
  TRACK 248 AUDIO
    TITLE "45:cjc135_6771"
    INDEX 01 04:01:31
  TRACK 249 AUDIO
    TITLE "0:"
    INDEX 01 04:02:50
  TRACK 250 AUDIO
    TITLE "46:cjc135_6772"
    INDEX 01 04:03:38
  TRACK 251 AUDIO
    TITLE "0:"
    INDEX 01 04:04:71
  TRACK 252 AUDIO
    TITLE "45:cjc135_6773"
    INDEX 01 04:05:19
  TRACK 253 AUDIO
    TITLE "0:"
    INDEX 01 04:06:34
  TRACK 254 AUDIO
    TITLE "46:cjc135_6774"
    INDEX 01 04:07:22
  TRACK 255 AUDIO
    TITLE "0:"
    INDEX 01 04:08:55
  TRACK 256 AUDIO
    TITLE "45:cjc135_6775"
    INDEX 01 04:09:09
  TRACK 257 AUDIO
    TITLE "0:"
    INDEX 01 04:10:32
  TRACK 258 AUDIO
    TITLE "46:cjc135_6776"
    INDEX 01 04:11:20
  TRACK 259 AUDIO
    TITLE "0:"
    INDEX 01 04:12:43
  TRACK 260 AUDIO
    TITLE "45:cjc135_6777"
    INDEX 01 04:12:70
  TRACK 261 AUDIO
    TITLE "0:"
    INDEX 01 04:14:08
  TRACK 262 AUDIO
    TITLE "46:cjc135_6778"
    INDEX 01 04:14:73
  TRACK 263 AUDIO
    TITLE "0:"
    INDEX 01 04:16:23
  TRACK 264 AUDIO
    TITLE "45:cjc135_6779"
    INDEX 01 04:16:48
  TRACK 265 AUDIO
    TITLE "0:"
    INDEX 01 04:17:68
  TRACK 266 AUDIO
    TITLE "46:cjc135_6780"
    INDEX 01 04:18:57
  TRACK 267 AUDIO
    TITLE "0:"
    INDEX 01 04:20:07
  TRACK 268 AUDIO
    TITLE "45:cjc135_6781"
    INDEX 01 04:20:35
  TRACK 269 AUDIO
    TITLE "0:"
    INDEX 01 04:21:65
  TRACK 270 AUDIO
    TITLE "46:cjc135_6782"
    INDEX 01 04:22:53
  TRACK 271 AUDIO
    TITLE "0:"
    INDEX 01 04:23:45
  TRACK 272 AUDIO
    TITLE "45:cjc135_6783"
    INDEX 01 04:23:70
  TRACK 273 AUDIO
    TITLE "0:"
    INDEX 01 04:24:73
  TRACK 274 AUDIO
    TITLE "46:cjc135_6784"
    INDEX 01 04:25:63
  TRACK 275 AUDIO
    TITLE "0:"
    INDEX 01 04:27:07
  TRACK 276 AUDIO
    TITLE "45:cjc135_6785"
    INDEX 01 04:27:33
  TRACK 277 AUDIO
    TITLE "0:"
    INDEX 01 04:28:54
  TRACK 278 AUDIO
    TITLE "46:cjc135_6786"
    INDEX 01 04:29:39
  TRACK 279 AUDIO
    TITLE "0:"
    INDEX 01 04:30:62
  TRACK 280 AUDIO
    TITLE "45:cjc135_6787"
    INDEX 01 04:31:13
  TRACK 281 AUDIO
    TITLE "0:"
    INDEX 01 04:32:22
  TRACK 282 AUDIO
    TITLE "46:cjc135_6788"
    INDEX 01 04:33:12
  TRACK 283 AUDIO
    TITLE "0:"
    INDEX 01 04:34:64
  TRACK 284 AUDIO
    TITLE "45:cjc135_6789"
    INDEX 01 04:35:16
  TRACK 285 AUDIO
    TITLE "0:"
    INDEX 01 04:36:47
  TRACK 286 AUDIO
    TITLE "46:cjc135_6790"
    INDEX 01 04:37:35
  TRACK 287 AUDIO
    TITLE "0:"
    INDEX 01 04:38:50
  TRACK 288 AUDIO
    TITLE "45:cjc135_6791"
    INDEX 01 04:39:03
  TRACK 289 AUDIO
    TITLE "0:"
    INDEX 01 04:40:08
  TRACK 290 AUDIO
    TITLE "46:cjc135_6792"
    INDEX 01 04:40:71
  TRACK 291 AUDIO
    TITLE "0:"
    INDEX 01 04:42:01
  TRACK 292 AUDIO
    TITLE "45:cjc135_6793"
    INDEX 01 04:42:30
  TRACK 293 AUDIO
    TITLE "0:"
    INDEX 01 04:43:47
  TRACK 294 AUDIO
    TITLE "46:cjc135_6794"
    INDEX 01 04:44:33
  TRACK 295 AUDIO
    TITLE "0:"
    INDEX 01 04:45:62
  TRACK 296 AUDIO
    TITLE "45:cjc135_6795"
    INDEX 01 04:46:24
  TRACK 297 AUDIO
    TITLE "0:"
    INDEX 01 04:47:43
  TRACK 298 AUDIO
    TITLE "46:cjc135_6796"
    INDEX 01 04:48:35
  TRACK 299 AUDIO
    TITLE "0:"
    INDEX 01 04:49:66
  TRACK 300 AUDIO
    TITLE "45:cjc135_6797"
    INDEX 01 04:50:14
  TRACK 301 AUDIO
    TITLE "0:"
    INDEX 01 04:51:47
  TRACK 302 AUDIO
    TITLE "46:cjc135_6798"
    INDEX 01 04:52:35
  TRACK 303 AUDIO
    TITLE "0:"
    INDEX 01 04:53:71
  TRACK 304 AUDIO
    TITLE "45:cjc135_6799"
    INDEX 01 04:54:22
  TRACK 305 AUDIO
    TITLE "0:"
    INDEX 01 04:55:31
  TRACK 306 AUDIO
    TITLE "46:cjc135_6800"
    INDEX 01 04:56:21
  TRACK 307 AUDIO
    TITLE "0:"
    INDEX 01 04:57:34
  TRACK 308 AUDIO
    TITLE "45:cjc135_6801"
    INDEX 01 04:57:59
  TRACK 309 AUDIO
    TITLE "0:"
    INDEX 01 04:59:07
  TRACK 310 AUDIO
    TITLE "46:cjc135_6802"
    INDEX 01 05:00:03
  TRACK 311 AUDIO
    TITLE "0:"
    INDEX 01 05:00:67
  TRACK 312 AUDIO
    TITLE "45:cjc135_6803"
    INDEX 01 05:01:18
  TRACK 313 AUDIO
    TITLE "0:"
    INDEX 01 05:02:41
  TRACK 314 AUDIO
    TITLE "46:cjc135_6804"
    INDEX 01 05:03:27
  TRACK 315 AUDIO
    TITLE "0:"
    INDEX 01 05:05:20
  TRACK 316 AUDIO
    TITLE "45:cjc135_6805"
    INDEX 01 05:05:45
  TRACK 317 AUDIO
    TITLE "0:"
    INDEX 01 05:07:09
  TRACK 318 AUDIO
    TITLE "46:cjc135_6806"
    INDEX 01 05:07:71
  TRACK 319 AUDIO
    TITLE "0:"
    INDEX 01 05:09:08
  TRACK 320 AUDIO
    TITLE "45:cjc135_6807"
    INDEX 01 05:09:33
  TRACK 321 AUDIO
    TITLE "0:"
    INDEX 01 05:10:56
  TRACK 322 AUDIO
    TITLE "46:cjc135_6808"
    INDEX 01 05:11:42
  TRACK 323 AUDIO
    TITLE "0:"
    INDEX 01 05:12:61
  TRACK 324 AUDIO
    TITLE "45:cjc135_6809"
    INDEX 01 05:13:09
  TRACK 325 AUDIO
    TITLE "0:"
    INDEX 01 05:14:50
  TRACK 326 AUDIO
    TITLE "46:cjc135_6810"
    INDEX 01 05:15:38
  TRACK 327 AUDIO
    TITLE "0:"
    INDEX 01 05:16:62
  TRACK 328 AUDIO
    TITLE "45:cjc135_6811"
    INDEX 01 05:17:19
  TRACK 329 AUDIO
    TITLE "0:"
    INDEX 01 05:18:38
  TRACK 330 AUDIO
    TITLE "46:cjc135_6812"
    INDEX 01 05:19:26
  TRACK 331 AUDIO
    TITLE "0:"
    INDEX 01 05:20:58
  TRACK 332 AUDIO
    TITLE "45:cjc135_6813"
    INDEX 01 05:21:09
  TRACK 333 AUDIO
    TITLE "0:"
    INDEX 01 05:22:28
  TRACK 334 AUDIO
    TITLE "46:cjc135_6814"
    INDEX 01 05:23:25
  TRACK 335 AUDIO
    TITLE "0:"
    INDEX 01 05:24:58
  TRACK 336 AUDIO
    TITLE "45:cjc135_6815"
    INDEX 01 05:25:12
  TRACK 337 AUDIO
    TITLE "0:"
    INDEX 01 05:26:41
  TRACK 338 AUDIO
    TITLE "46:cjc135_6816"
    INDEX 01 05:27:27
  TRACK 339 AUDIO
    TITLE "0:"
    INDEX 01 05:28:58
  TRACK 340 AUDIO
    TITLE "45:cjc135_6817"
    INDEX 01 05:29:12
  TRACK 341 AUDIO
    TITLE "0:"
    INDEX 01 05:30:29
  TRACK 342 AUDIO
    TITLE "46:cjc135_6818"
    INDEX 01 05:31:17
  TRACK 343 AUDIO
    TITLE "0:"
    INDEX 01 05:32:56
  TRACK 344 AUDIO
    TITLE "45:cjc135_6819"
    INDEX 01 05:33:08
  TRACK 345 AUDIO
    TITLE "0:"
    INDEX 01 05:34:19
  TRACK 346 AUDIO
    TITLE "46:cjc135_6820"
    INDEX 01 05:35:07
  TRACK 347 AUDIO
    TITLE "0:"
    INDEX 01 05:36:10
  TRACK 348 AUDIO
    TITLE "45:cjc135_6821"
    INDEX 01 05:36:38
  TRACK 349 AUDIO
    TITLE "0:"
    INDEX 01 05:37:49
  TRACK 350 AUDIO
    TITLE "46:cjc135_6822"
    INDEX 01 05:38:39
  TRACK 351 AUDIO
    TITLE "0:"
    INDEX 01 05:40:02
  TRACK 352 AUDIO
    TITLE "45:cjc135_6823"
    INDEX 01 05:40:28
  TRACK 353 AUDIO
    TITLE "0:"
    INDEX 01 05:41:37
  TRACK 354 AUDIO
    TITLE "46:cjc135_6824"
    INDEX 01 05:42:27
  TRACK 355 AUDIO
    TITLE "0:"
    INDEX 01 05:43:61
  TRACK 356 AUDIO
    TITLE "45:cjc135_6825"
    INDEX 01 05:44:10
  TRACK 357 AUDIO
    TITLE "0:"
    INDEX 01 05:45:31
  TRACK 358 AUDIO
    TITLE "46:cjc135_6826"
    INDEX 01 05:46:20
  TRACK 359 AUDIO
    TITLE "0:"
    INDEX 01 05:47:53
  TRACK 360 AUDIO
    TITLE "45:cjc135_6827"
    INDEX 01 05:48:02
  TRACK 361 AUDIO
    TITLE "0:"
    INDEX 01 05:49:23
  TRACK 362 AUDIO
    TITLE "46:cjc135_6828"
    INDEX 01 05:50:14
  TRACK 363 AUDIO
    TITLE "0:"
    INDEX 01 05:51:29
  TRACK 364 AUDIO
    TITLE "45:cjc135_6829"
    INDEX 01 05:51:55
  TRACK 365 AUDIO
    TITLE "0:"
    INDEX 01 05:53:01
  TRACK 366 AUDIO
    TITLE "46:cjc135_6830"
    INDEX 01 05:53:66
  TRACK 367 AUDIO
    TITLE "0:"
    INDEX 01 05:55:06
  TRACK 368 AUDIO
    TITLE "45:cjc135_6831"
    INDEX 01 05:55:31
  TRACK 369 AUDIO
    TITLE "0:"
    INDEX 01 05:56:64
  TRACK 370 AUDIO
    TITLE "46:cjc135_6832"
    INDEX 01 05:57:50
  TRACK 371 AUDIO
    TITLE "0:"
    INDEX 01 05:59:02
  TRACK 372 AUDIO
    TITLE "45:cjc135_6833"
    INDEX 01 05:59:29
  TRACK 373 AUDIO
    TITLE "0:"
    INDEX 01 06:00:28
  TRACK 374 AUDIO
    TITLE "46:cjc135_6834"
    INDEX 01 06:01:14
  TRACK 375 AUDIO
    TITLE "0:"
    INDEX 01 06:02:47
  TRACK 376 AUDIO
    TITLE "45:cjc135_6835"
    INDEX 01 06:02:72
  TRACK 377 AUDIO
    TITLE "0:"
    INDEX 01 06:04:16
  TRACK 378 AUDIO
    TITLE "46:cjc135_6836"
    INDEX 01 06:05:06
  TRACK 379 AUDIO
    TITLE "0:"
    INDEX 01 06:06:13
  TRACK 380 AUDIO
    TITLE "45:cjc135_6837"
    INDEX 01 06:06:43
  TRACK 381 AUDIO
    TITLE "0:"
    INDEX 01 06:07:40
  TRACK 382 AUDIO
    TITLE "46:cjc135_6838"
    INDEX 01 06:08:28
  TRACK 383 AUDIO
    TITLE "0:"
    INDEX 01 06:09:49
  TRACK 384 AUDIO
    TITLE "45:cjc135_6839"
    INDEX 01 06:10:01
  TRACK 385 AUDIO
    TITLE "0:"
    INDEX 01 06:11:34
  TRACK 386 AUDIO
    TITLE "46:cjc135_6840"
    INDEX 01 06:12:22
  TRACK 387 AUDIO
    TITLE "0:"
    INDEX 01 06:13:37
  TRACK 388 AUDIO
    TITLE "45:cjc135_6841"
    INDEX 01 06:13:62
  TRACK 389 AUDIO
    TITLE "0:"
    INDEX 01 06:14:70
  TRACK 390 AUDIO
    TITLE "46:cjc135_6842"
    INDEX 01 06:15:55
  TRACK 391 AUDIO
    TITLE "0:"
    INDEX 01 06:17:01
  TRACK 392 AUDIO
    TITLE "45:cjc135_6843"
    INDEX 01 06:17:27
  TRACK 393 AUDIO
    TITLE "0:"
    INDEX 01 06:18:60
  TRACK 394 AUDIO
    TITLE "46:cjc135_6844"
    INDEX 01 06:19:47
  TRACK 395 AUDIO
    TITLE "0:"
    INDEX 01 06:20:53
  TRACK 396 AUDIO
    TITLE "45:cjc135_6845"
    INDEX 01 06:21:03
  TRACK 397 AUDIO
    TITLE "0:"
    INDEX 01 06:22:08
  TRACK 398 AUDIO
    TITLE "46:cjc135_6846"
    INDEX 01 06:22:69
  TRACK 399 AUDIO
    TITLE "0:"
    INDEX 01 06:24:11
  TRACK 400 AUDIO
    TITLE "45:cjc135_6847"
    INDEX 01 06:24:37
  TRACK 401 AUDIO
    TITLE "0:"
    INDEX 01 06:25:56
  TRACK 402 AUDIO
    TITLE "46:cjc135_6848"
    INDEX 01 06:26:42
  TRACK 403 AUDIO
    TITLE "0:"
    INDEX 01 06:27:64
  TRACK 404 AUDIO
    TITLE "45:cjc135_6849"
    INDEX 01 06:28:17
  TRACK 405 AUDIO
    TITLE "0:"
    INDEX 01 06:29:28
  TRACK 406 AUDIO
    TITLE "46:cjc135_6850"
    INDEX 01 06:30:16
  TRACK 407 AUDIO
    TITLE "0:"
    INDEX 01 06:31:51
  TRACK 408 AUDIO
    TITLE "45:cjc135_6851"
    INDEX 01 06:31:74
  TRACK 409 AUDIO
    TITLE "0:"
    INDEX 01 06:33:22
  TRACK 410 AUDIO
    TITLE "46:cjc135_6852"
    INDEX 01 06:34:10
  TRACK 411 AUDIO
    TITLE "0:"
    INDEX 01 06:35:70
  TRACK 412 AUDIO
    TITLE "45:cjc135_6853"
    INDEX 01 06:36:22
  TRACK 413 AUDIO
    TITLE "0:"
    INDEX 01 06:37:47
  TRACK 414 AUDIO
    TITLE "46:cjc135_6854"
    INDEX 01 06:38:35
  TRACK 415 AUDIO
    TITLE "0:"
    INDEX 01 06:39:64
  TRACK 416 AUDIO
    TITLE "45:cjc135_6855"
    INDEX 01 06:40:14
  TRACK 417 AUDIO
    TITLE "0:"
    INDEX 01 06:41:43
